#!OML:ASF H:\Male1\Project 1\Capture day 1\Session 1\Male1.ASF
:FULLY-SPECIFIED
:DEGREES
563
root 23.8811 15.2815 -4.3283 340.703 86.8456 -18.2914
lowerback 3.40959 2.83352 -0.677988
upperback 3.82936 3.88897 -1.9856
thorax 2.12101 1.9979 -1.71368
lowerneck -6.15933 5.79921 10.3395
upperneck 3.17161 7.19005 -5.96387
head 2.52588 3.54413 -3.13763
rclavicle -8.84592e-014 3.65764e-014
rhumerus -31.0243 2.3024 -92.0766
rradius 32.0746
rwrist -17.7475
rhand -16.9425 0.853672
rfingers 7.12502
rthumb 9.29081 -28.9216
lclavicle -8.84592e-014 3.65764e-014
lhumerus -26.8114 16.9189 79.9034
lradius 21.7934
lwrist -14.8966
lhand -18.7179 8.39188
lfingers 7.12502
lthumb 7.5774 38.2361
rfemur -7.93675 18.682 26.2791
rtibia 30.0649
rfoot -33.8196 -27.7033
rtoes -8.41719
lfemur -9.15355 -18.3737 -23.5649
ltibia 32.7504
lfoot -30.7261 27.8335
ltoes 5.36678
564
root 23.8841 15.2794 -4.32997 341.421 86.8745 -17.5226
lowerback 3.42344 2.81604 -0.730654
upperback 3.71235 3.8599 -2.04501
thorax 1.99239 1.98149 -1.74947
lowerneck -5.80967 5.81789 10.4245
upperneck 3.03597 7.22605 -5.61428
head 2.7006 3.59138 -3.40439
rclavicle 9.24349e-015 -1.03368e-014
rhumerus -31.292 2.32863 -92.2479
rradius 32.0353
rwrist -17.709
rhand -17.3424 1.2588
rfingers 7.12502
rthumb 8.90492 -28.5333
lclavicle 9.24349e-015 -1.03368e-014
lhumerus -27.1019 18.1684 79.4579
lradius 22.2516
lwrist -14.0959
lhand -19.5243 7.84841
lfingers 7.12502
lthumb 6.79902 37.7192
rfemur -7.90137 18.6178 26.2325
rtibia 30.0852
rfoot -33.7606 -27.7393
rtoes -8.64371
lfemur -9.08735 -18.3319 -23.6416
ltibia 32.742
lfoot -30.6454 27.8657
ltoes 5.16236
565
root 23.8865 15.2753 -4.33398 339.815 86.8571 -19.0814
lowerback 3.41485 2.80858 -0.603345
upperback 3.67367 3.85049 -2.05771
thorax 1.9662 1.97929 -1.83383
lowerneck -5.56762 5.85608 10.4474
upperneck 2.97691 7.29444 -5.51132
head 2.63659 3.63066 -3.37417
rclavicle 1.92821e-014 -2.3059e-014
rhumerus -31.4068 2.26094 -92.3192
rradius 32.0288
rwrist -17.6029
rhand -17.7011 1.7729
rfingers 7.12502
rthumb 8.55877 -28.0336
lclavicle 1.92821e-014 -2.3059e-014
lhumerus -27.0587 19.1933 79.2619
lradius 22.6856
lwrist -12.752
lhand -20.5361 8.02951
lfingers 7.12502
lthumb 5.82225 37.9295
rfemur -7.84969 18.5136 26.3156
rtibia 30.057
rfoot -33.6914 -27.6703
rtoes -8.58811
lfemur -9.04919 -18.2816 -23.5804
ltibia 32.7874
lfoot -30.7327 27.7502
ltoes 5.42714
566
root 23.8873 15.2746 -4.337 336.687 86.7763 -22.1475
lowerback 3.47669 2.83647 -0.353231
upperback 3.67062 3.89059 -2.04041
thorax 1.94506 2.00482 -1.95924
lowerneck -5.47614 5.88232 10.4918
upperneck 2.89501 7.33048 -5.43068
head 2.59261 3.65124 -3.35466
rclavicle 4.41302e-014 -3.97569e-015
rhumerus -31.4115 2.06691 -92.2965
rradius 31.9712
rwrist -17.3355
rhand -18.0329 2.18907
rfingers 7.12502
rthumb 8.23859 -27.6303
lclavicle 4.41302e-014 -3.97569e-015
lhumerus -26.7713 19.6986 79.3542
lradius 23.1004
lwrist -11.0088
lhand -21.8084 8.75776
lfingers 7.12502
lthumb 4.59374 38.6879
rfemur -7.77631 18.5781 26.5351
rtibia 30.0232
rfoot -33.7238 -27.6572
rtoes -8.43494
lfemur -8.99936 -18.274 -23.4127
ltibia 32.8419
lfoot -30.9027 27.6633
ltoes 5.69885
567
root 23.8882 15.2739 -4.33837 335.927 86.7284 -22.8714
lowerback 3.55475 2.89125 -0.241701
upperback 3.62024 3.96327 -2.07315
thorax 1.86189 2.0436 -2.06199
lowerneck -5.25948 5.9445 10.7094
upperneck 2.7584 7.42245 -5.51319
head 2.52999 3.69865 -3.42526
rclavicle -2.127e-014 1.43125e-014
rhumerus -31.4238 1.82196 -92.2779
rradius 31.759
rwrist -17.0998
rhand -18.4559 2.43589
rfingers 7.12502
rthumb 7.83033 -27.3991
lclavicle -2.127e-014 1.43125e-014
lhumerus -26.5054 19.7529 79.551
lradius 23.5427
lwrist -9.26251
lhand -23.1103 9.42326
lfingers 7.12502
lthumb 3.3366 39.3769
rfemur -7.74245 18.6869 26.6129
rtibia 30.0166
rfoot -33.8417 -27.6436
rtoes -7.97834
lfemur -8.95865 -18.2591 -23.3727
ltibia 32.8611
lfoot -30.991 27.6129
ltoes 5.98924
568
root 23.8925 15.2708 -4.3409 338.63 86.7853 -20.1419
lowerback 3.52802 2.96328 -0.31409
upperback 3.60314 4.06071 -2.17321
thorax 1.86525 2.09271 -2.12485
lowerneck -5.08504 6.04518 10.8256
upperneck 2.66024 7.56908 -5.57765
head 2.48722 3.77237 -3.46609
rclavicle 8.71671e-014 -2.06736e-014
rhumerus -31.3549 1.45 -92.2168
rradius 31.4571
rwrist -17.0455
rhand -18.752 2.47173
rfingers 7.12502
rthumb 7.5445 -27.3737
lclavicle 8.71671e-014 -2.06736e-014
lhumerus -26.1449 19.6846 79.8142
lradius 23.9077
lwrist -7.87495
lhand -24.2054 10.1258
lfingers 7.12502
lthumb 2.27903 40.0934
rfemur -7.73142 18.6254 26.4213
rtibia 30.0451
rfoot -33.8954 -27.5364
rtoes -7.64883
lfemur -8.87428 -18.3593 -23.6014
ltibia 32.8327
lfoot -31.1525 27.6158
ltoes 6.44178
569
root 23.899 15.2695 -4.34409 340.961 86.8465 -17.768
lowerback 3.43762 3.03227 -0.352503
upperback 3.63005 4.15789 -2.26278
thorax 1.95135 2.14308 -2.1904
lowerneck -5.17374 6.03937 10.6333
upperneck 2.66772 7.55096 -5.25574
head 2.47609 3.7675 -3.31574
rclavicle 2.41523e-014 -7.95139e-015
rhumerus -31.2948 0.889389 -92.0819
rradius 31.2824
rwrist -16.8977
rhand -18.7838 2.44398
rfingers 7.12502
rthumb 7.51381 -27.4026
lclavicle 2.41523e-014 -7.95139e-015
lhumerus -25.6432 19.0352 80.2816
lradius 24.1919
lwrist -6.41034
lhand -25.2572 11.6599
lfingers 7.12502
lthumb 1.26316 41.6359
rfemur -7.67304 18.5148 26.2546
rtibia 30.0801
rfoot -33.8648 -27.4055
rtoes -7.60284
lfemur -8.74783 -18.642 -23.8436
ltibia 32.7945
lfoot -31.3769 27.775
ltoes 6.73551
570
root 23.9028 15.2721 -4.34549 340.988 86.8945 -17.7223
lowerback 3.36907 3.0719 -0.330597
upperback 3.63974 4.21361 -2.28778
thorax 2.00531 2.17224 -2.22439
lowerneck -5.10973 6.06519 10.6758
upperneck 2.57119 7.58659 -5.22307
head 2.43501 3.78583 -3.31249
rclavicle 5.52621e-014 -3.18055e-014
rhumerus -31.303 0.387972 -91.9255
rradius 31.2059
rwrist -16.5902
rhand -18.6379 2.31362
rfingers 7.12502
rthumb 7.65462 -27.5279
lclavicle 5.52621e-014 -3.18055e-014
lhumerus -25.151 17.8336 80.8762
lradius 24.5254
lwrist -5.26225
lhand -25.6737 12.838
lfingers 7.12502
lthumb 0.860905 42.816
rfemur -7.6146 18.4455 26.2448
rtibia 30.099
rfoot -33.8811 -27.3589
rtoes -7.57166
lfemur -8.7061 -18.7472 -23.8884
ltibia 32.7722
lfoot -31.3071 27.9026
ltoes 6.39165
571
root 23.9024 15.275 -4.34503 338.342 86.975 -20.3752
lowerback 3.35344 3.04924 -0.256581
upperback 3.57501 4.17997 -2.24905
thorax 1.94812 2.15477 -2.22666
lowerneck -4.84048 6.10504 10.8207
upperneck 2.43666 7.66163 -5.32397
head 2.35961 3.82374 -3.37852
rclavicle -3.24019e-014 1.35174e-014
rhumerus -31.4169 0.176014 -91.8351
rradius 31.1198
rwrist -16.4414
rhand -18.4055 1.95322
rfingers 7.12502
rthumb 7.87894 -27.88
lclavicle -3.24019e-014 1.35174e-014
lhumerus -24.8524 16.8382 81.3098
lradius 24.9017
lwrist -5.10379
lhand -25.2155 12.5416
lfingers 7.12502
lthumb 1.30342 42.5174
rfemur -7.59702 18.3775 26.3793
rtibia 30.1133
rfoot -33.92 -27.4416
rtoes -7.59212
lfemur -8.75646 -18.577 -23.7213
ltibia 32.7556
lfoot -30.9059 27.8707
ltoes 5.54317
572
root 23.9015 15.2748 -4.34347 336.507 87.0727 -22.2246
lowerback 3.35611 3.00253 -0.259112
upperback 3.45116 4.11002 -2.22453
thorax 1.81392 2.11645 -2.20364
lowerneck -4.61431 6.07336 11.0379
upperneck 2.46099 7.63775 -5.49279
head 2.34496 3.81394 -3.48591
rclavicle -1.65985e-014 -2.38542e-014
rhumerus -31.63 0.171358 -91.8213
rradius 31.0334
rwrist -16.4549
rhand -18.1376 1.6173
rfingers 7.12502
rthumb 8.13751 -28.206
lclavicle -1.65985e-014 -2.38542e-014
lhumerus -24.6671 16.1861 81.5575
lradius 25.1209
lwrist -5.5342
lhand -24.5685 11.6268
lfingers 7.12502
lthumb 1.92831 41.5979
rfemur -7.62007 18.3609 26.4506
rtibia 30.1463
rfoot -34.0051 -27.4221
rtoes -7.71606
lfemur -8.79623 -18.4475 -23.6107
ltibia 32.7288
lfoot -30.6311 27.7598
ltoes 5.15429
